<?xml version="1.0" encoding="UTF-8"?>
<svg xmlns="http://www.w3.org/2000/svg"
     viewBox="0 0 135.47 135.47"
     aria-hidden="true"
     focusable="false">
   <path d="m90.707 48.793a0.5 0.5 0 0 0-0.35352 0.14648l-70 70a0.5 0.5 0 0 0 0 0.70704 0.5 0.5 0 0 0 0.70703 0l70-70a0.5 0.5 0 0 0 0-0.70703 0.5 0.5 0 0 0-0.35352-0.14648z"     fill="currentColor"
     stroke="currentColor"
     stroke-width="1.2"
     stroke-linejoin="round"
     stroke-linecap="round"/>
   <path d="m78.397 45.191a0.91245 0.93511 0 0 0-0.64513 0.27396l-59.309 60.782a0.91254 0.9352 0 0 0-0.26732 0.66115v14.027a0.91254 0.9352 0 0 0 0.91245 0.93511h13.687a0.91254 0.9352 0 0 0 0.64513-0.27396l59.309-60.782a0.91245 0.93511 0 0 0 0-1.3223 0.91245 0.93511 0 0 0-1.2903 0l-59.042 60.508h-12.397v-12.704l59.042-60.508a0.91245 0.93511 0 0 0 0-1.3223 0.91245 0.93511 0 0 0-0.64513-0.27396z"     fill="currentColor"
     stroke="currentColor"
     stroke-width="1.2"
     stroke-linejoin="round"
     stroke-linecap="round"/>
   <path d="m85.865 38.818a0.5 0.5 0 0 0-0.38086 0.02734 0.5 0.5 0 0 0-0.22461 0.66992l5 10a0.50005 0.50005 0 0 0 0.22461 0.22461l10 5a0.5 0.5 0 0 0 0.66992-0.22461 0.5 0.5 0 0 0-0.22461-0.66992l-9.8496-4.9258-4.9258-9.8496a0.5 0.5 0 0 0-0.28906-0.25195z"     fill="currentColor"
     stroke="currentColor"
     stroke-width="1.2"
     stroke-linejoin="round"
     stroke-linecap="round"/>
   <path d="m70.707 23.293a1 1 0 0 0-0.70703 0.29297 1 1 0 0 0 0 1.4141l45 45a1 1 0 0 0 1.4141 0 1 1 0 0 0 0-1.4141l-45-45a1 1 0 0 0-0.70703-0.29297z"     fill="currentColor"
     stroke="currentColor"
     stroke-width="1.2"
     stroke-linejoin="round"
     stroke-linecap="round"/>
   <path d="m78.816 18.584a1 1 0 0 0-1.4141 0.0039 1 1 0 0 0 0.0039 1.4141l42.596 42.4a1 1 0 0 0 1.4141-0.0039 1 1 0 0 0-4e-3 -1.4141z"     fill="currentColor"
     stroke="currentColor"
     stroke-width="1.2"
     stroke-linejoin="round"
     stroke-linecap="round"/>
   <path d="m120.51 60.715a1 1 0 0 0-0.63477 0.42969l-5 7.5996a1 1 0 0 0 0.28711 1.3848 1 1 0 0 0 1.3848-0.28711l5-7.5977a1 1 0 0 0-0.28711-1.3867 1 1 0 0 0-0.75-0.14258z"     fill="currentColor"
     stroke="currentColor"
     stroke-width="1.2"
     stroke-linejoin="round"
     stroke-linecap="round"/>
   <path d="m77.551 18.465-7.4043 5a1 1 0 0 0-0.26758 1.3887 1 1 0 0 0 1.3887 0.26758l7.4023-5a1 1 0 0 0 0.26953-1.3887 1 1 0 0 0-1.3887-0.26758z"     fill="currentColor"
     stroke="currentColor"
     stroke-width="1.2"
     stroke-linejoin="round"
     stroke-linecap="round"/>
   <path d="m108.12 23.293a1 1 0 0 0-0.70703 0.29297l-12.414 12.393a1 1 0 0 0 0 1.4141 1 1 0 0 0 1.4141 0l12.412-12.393a1 1 0 0 0 2e-3 -1.4141 1 1 0 0 0-0.70708-0.29297z"     fill="currentColor"
     stroke="currentColor"
     stroke-width="1.2"
     stroke-linejoin="round"
     stroke-linecap="round"/>
   <path d="m115.69 30.684a1 1 0 0 0-0.70117 0.30859l-12.291 12.799a1 1 0 0 0 0.0293 1.4141 1 1 0 0 0 1.4141-0.0293l12.289-12.799a1 1 0 0 0-0.0273-1.4141 1 1 0 0 0-0.71289-0.2793z"     fill="currentColor"
     stroke="currentColor"
     stroke-width="1.2"
     stroke-linejoin="round"
     stroke-linecap="round"/>
   <path d="m115.71 13.293a1.0001 1.0001 0 0 0-0.79687 0.39648l-7.5859 10a1.0001 1.0001 0 0 0 0.0977 1.3203l7.5879 7.3906a1.0001 1.0001 0 0 0 1.291 0.08789l10-7.3906a1.0001 1.0001 0 0 0 0.4062-0.80469v-10a1.0001 1.0001 0 0 0-1-1zm0.49609 2h8.5039v8.4961l-8.9102 6.5879-6.3457-6.1836z"     fill="currentColor"
     stroke="currentColor"
     stroke-width="1.2"
     stroke-linejoin="round"
     stroke-linecap="round"/>
   <path d="m85.707 73.293a1 1 0 0 0-0.70703 0.29297 1 1 0 0 0 0 1.4141l39.707 39.707v3.5859h-3.5859l-39.707-39.707a1 1 0 0 0-1.4141 0 1 1 0 0 0 0 1.4141l40 40a1.0001 1.0001 0 0 0 0.70703 0.29297h5a1.0001 1.0001 0 0 0 1-1v-5a1.0001 1.0001 0 0 0-0.29297-0.70703l-40-40a1 1 0 0 0-0.70703-0.29297z"     fill="currentColor"
     stroke="currentColor"
     stroke-width="1.2"
     stroke-linejoin="round"
     stroke-linecap="round"/>
   <path d="m30.707 18.293a1 1 0 0 0-0.70703 0.29297 1 1 0 0 0 0 1.4141l35 35a1 1 0 0 0 1.4141 0 1 1 0 0 0 0-1.4141l-35-35a1 1 0 0 0-0.70703-0.29297z"     fill="currentColor"
     stroke="currentColor"
     stroke-width="1.2"
     stroke-linejoin="round"
     stroke-linecap="round"/>
   <path d="m25.707 23.293a1 1 0 0 0-0.70703 0.29297 1 1 0 0 0 0 1.4141l35 35a1 1 0 0 0 1.4141 0 1 1 0 0 0 0-1.4141l-35-35a1 1 0 0 0-0.70703-0.29297z"     fill="currentColor"
     stroke="currentColor"
     stroke-width="1.2"
     stroke-linejoin="round"
     stroke-linecap="round"/>
   <path d="m20.707 13.293a1.0001 1.0001 0 0 0-1 1v5a1 1 0 0 0 1 1 1 1 0 0 0 1-1v-4h3.5859l4.707 4.707a1 1 0 0 0 1.4141 0 1 1 0 0 0 0-1.4141l-5-5a1.0001 1.0001 0 0 0-0.70703-0.29297z"     fill="currentColor"
     stroke="currentColor"
     stroke-width="1.2"
     stroke-linejoin="round"
     stroke-linecap="round"/>
   <path d="m20.707 18.293a1 1 0 0 0-0.70703 0.29297 1 1 0 0 0 0 1.4141l5 5a1 1 0 0 0 1.4141 0 1 1 0 0 0 0-1.4141l-5-5a1 1 0 0 0-0.70703-0.29297z"     fill="currentColor"
     stroke="currentColor"
     stroke-width="1.2"
     stroke-linejoin="round"
     stroke-linecap="round"/>
   <path d="m35.898 13.832a0.50005 0.50005 0 0 0-0.54492 0.10742l-5 5a0.5 0.5 0 0 0 0 0.70703 0.5 0.5 0 0 0 0.70703 0l4.1465-4.1465v8.793a0.5 0.5 0 0 0 0.5 0.5 0.5 0.5 0 0 0 0.5-0.5v-10a0.50005 0.50005 0 0 0-0.3086-0.46094z"     fill="currentColor"
     stroke="currentColor"
     stroke-width="1.2"
     stroke-linejoin="round"
     stroke-linecap="round"/>
   <path d="m45.898 23.832a0.50005 0.50005 0 0 0-0.54492 0.10742l-5 5a0.5 0.5 0 0 0 0 0.70703 0.5 0.5 0 0 0 0.70703 0l4.1465-4.1465v8.793a0.5 0.5 0 0 0 0.5 0.5 0.5 0.5 0 0 0 0.5-0.5v-10a0.50005 0.50005 0 0 0-0.30859-0.46094z"     fill="currentColor"
     stroke="currentColor"
     stroke-width="1.2"
     stroke-linejoin="round"
     stroke-linecap="round"/>
   <path d="m10.034 28.293a1.3545 1 0 0 0-1.3545 1 1.3545 1 0 0 0 1.3545 1h20.318a1.3545 1 0 0 0 1.3545-1 1.3545 1 0 0 0-1.3545-1z"     fill="currentColor"
     stroke="currentColor"
     stroke-width="1.2"
     stroke-linejoin="round"
     stroke-linecap="round"/>
   <path d="m40.707 38.293a1 1.5294 0 0 0-1 1.5294v22.941a1 1.5294 0 0 0 1 1.5294 1 1.5294 0 0 0 1-1.5294v-22.941a1 1.5294 0 0 0-1-1.5294z"     fill="currentColor"
     stroke="currentColor"
     stroke-width="1.2"
     stroke-linejoin="round"
     stroke-linecap="round"/>
   <path d="m10.015 28.077a1.2295 1.3414 0 0 0-1.3352 1.2156c-1.0428 12.515 1.0322 21.928 6.503 27.896 5.4707 5.9684 14.099 8.2322 25.57 7.0945a1.2295 1.3414 0 0 0 1.1142-1.4566 1.2295 1.3414 0 0 0-1.3352-1.2156c-11.07 1.0979-18.835-1.1095-23.61-6.319-4.7752-5.2096-6.7985-13.681-5.7922-25.758a1.2295 1.3414 0 0 0-1.1142-1.4566z"     fill="currentColor"
     stroke="currentColor"
     stroke-width="1.2"
     stroke-linejoin="round"
     stroke-linecap="round"/>
  <path d="m84.762 38.154-15.484 16.154 1.4453 1.3828 15.484-16.154z"     fill="currentColor"
     stroke="currentColor"
     stroke-width="1.2"
     stroke-linejoin="round"
     stroke-linecap="round"/>
  <path d="m99.299 51.787-12.703 12.5 1.4023 1.4258 12.703-12.5z"     fill="currentColor"
     stroke="currentColor"
     stroke-width="1.2"
     stroke-linejoin="round"
     stroke-linecap="round"/>
</svg>
