<?xml version="1.0" encoding="UTF-8"?>
<svg xmlns="http://www.w3.org/2000/svg"
     viewBox="0 0 135.47 135.47">
  <path d="m85 49.5a0.5 0.5 0 0 0-0.35352 0.14648l-70 70a0.5 0.5 0 0 0 0 0.70704 0.5 0.5 0 0 0 0.70703 0l70-70a0.5 0.5 0 0 0 0-0.70703 0.5 0.5 0 0 0-0.35352-0.14648z"     fill="currentColor"
     stroke="currentColor"
     stroke-width="1.2"
     stroke-linejoin="round"
     stroke-linecap="round"/>
  <path d="m80 39a1 1 0 0 0-0.70703 0.29297l-65 65a1.0001 1.0001 0 0 0-0.29297 0.70703v15a1.0001 1.0001 0 0 0 1 1h15a1.0001 1.0001 0 0 0 0.70703-0.29297l65-65a1 1 0 0 0 0-1.4141 1 1 0 0 0-1.4141 0l-64.707 64.707h-13.586v-13.586l64.707-64.707a1 1 0 0 0 0-1.4141 1 1 0 0 0-0.70703-0.29297z"     fill="currentColor"
     stroke="currentColor"
     stroke-width="1.2"
     stroke-linejoin="round"
     stroke-linecap="round"/>
  <path d="m80.158 39.525a0.5 0.5 0 0 0-0.38086 0.02734 0.5 0.5 0 0 0-0.22461 0.66992l5 10a0.50005 0.50005 0 0 0 0.22461 0.22461l10 5a0.5 0.5 0 0 0 0.66992-0.22461 0.5 0.5 0 0 0-0.22461-0.66992l-9.8496-4.9258-4.9258-9.8496a0.5 0.5 0 0 0-0.28906-0.25195z"     fill="currentColor"
     stroke="currentColor"
     stroke-width="1.2"
     stroke-linejoin="round"
     stroke-linecap="round"/>
  <path d="m65 24a1 1 0 0 0-0.70703 0.29297 1 1 0 0 0 0 1.4141l45 45a1 1 0 0 0 1.4141 0 1 1 0 0 0 0-1.4141l-45-45a1 1 0 0 0-0.70703-0.29297z"     fill="currentColor"
     stroke="currentColor"
     stroke-width="1.2"
     stroke-linejoin="round"
     stroke-linecap="round"/>
  <path d="m73.109 19.291a1 1 0 0 0-1.4141 0.0039 1 1 0 0 0 0.0039 1.4141l42.596 42.4a1 1 0 0 0 1.4141-0.0039 1 1 0 0 0-4e-3 -1.4141z"     fill="currentColor"
     stroke="currentColor"
     stroke-width="1.2"
     stroke-linejoin="round"
     stroke-linecap="round"/>
  <path d="m114.8 61.422a1 1 0 0 0-0.63477 0.42969l-5 7.5996a1 1 0 0 0 0.28711 1.3848 1 1 0 0 0 1.3848-0.28711l5-7.5977a1 1 0 0 0-0.28711-1.3867 1 1 0 0 0-0.75-0.14258z"     fill="currentColor"
     stroke="currentColor"
     stroke-width="1.2"
     stroke-linejoin="round"
     stroke-linecap="round"/>
  <path d="m71.844 19.172-7.4043 5a1 1 0 0 0-0.26758 1.3887 1 1 0 0 0 1.3887 0.26758l7.4023-5a1 1 0 0 0 0.26953-1.3887 1 1 0 0 0-1.3887-0.26758z"     fill="currentColor"
     stroke="currentColor"
     stroke-width="1.2"
     stroke-linejoin="round"
     stroke-linecap="round"/>
  <path d="m102.41 24a1 1 0 0 0-0.70703 0.29297l-12.414 12.393a1 1 0 0 0 0 1.4141 1 1 0 0 0 1.4141 0l12.412-12.393a1 1 0 0 0 2e-3 -1.4141 1 1 0 0 0-0.70708-0.29297z"     fill="currentColor"
     stroke="currentColor"
     stroke-width="1.2"
     stroke-linejoin="round"
     stroke-linecap="round"/>
  <path d="m109.98 31.391a1 1 0 0 0-0.70117 0.30859l-12.291 12.799a1 1 0 0 0 0.0293 1.4141 1 1 0 0 0 1.4141-0.0293l12.289-12.799a1 1 0 0 0-0.0273-1.4141 1 1 0 0 0-0.71289-0.2793z"     fill="currentColor"
     stroke="currentColor"
     stroke-width="1.2"
     stroke-linejoin="round"
     stroke-linecap="round"/>
  <path d="m110 14a1.0001 1.0001 0 0 0-0.79687 0.39648l-7.5859 10a1.0001 1.0001 0 0 0 0.0977 1.3203l7.5879 7.3906a1.0001 1.0001 0 0 0 1.291 0.08789l10-7.3906a1.0001 1.0001 0 0 0 0.4062-0.80469v-10a1.0001 1.0001 0 0 0-1-1zm0.49609 2h8.5039v8.4961l-8.9102 6.5879-6.3457-6.1836z"     fill="currentColor"
     stroke="currentColor"
     stroke-width="1.2"
     stroke-linejoin="round"
     stroke-linecap="round"/>
  <path d="m80 74a1 1 0 0 0-0.70703 0.29297 1 1 0 0 0 0 1.4141l39.707 39.707v3.5859h-3.5859l-39.707-39.707a1 1 0 0 0-1.4141 0 1 1 0 0 0 0 1.4141l40 40a1.0001 1.0001 0 0 0 0.70703 0.29297h5a1.0001 1.0001 0 0 0 1-1v-5a1.0001 1.0001 0 0 0-0.29297-0.70703l-40-40a1 1 0 0 0-0.70703-0.29297z"     fill="currentColor"
     stroke="currentColor"
     stroke-width="1.2"
     stroke-linejoin="round"
     stroke-linecap="round"/>
  <path d="m25 19a1 1 0 0 0-0.70703 0.29297 1 1 0 0 0 0 1.4141l35 35a1 1 0 0 0 1.4141 0 1 1 0 0 0 0-1.4141l-35-35a1 1 0 0 0-0.70703-0.29297z"     fill="currentColor"
     stroke="currentColor"
     stroke-width="1.2"
     stroke-linejoin="round"
     stroke-linecap="round"/>
  <path d="m20 24a1 1 0 0 0-0.70703 0.29297 1 1 0 0 0 0 1.4141l35 35a1 1 0 0 0 1.4141 0 1 1 0 0 0 0-1.4141l-35-35a1 1 0 0 0-0.70703-0.29297z"     fill="currentColor"
     stroke="currentColor"
     stroke-width="1.2"
     stroke-linejoin="round"
     stroke-linecap="round"/>
  <path d="m15 14a1.0001 1.0001 0 0 0-1 1v5a1 1 0 0 0 1 1 1 1 0 0 0 1-1v-4h3.5859l4.707 4.707a1 1 0 0 0 1.4141 0 1 1 0 0 0 0-1.4141l-5-5a1.0001 1.0001 0 0 0-0.70703-0.29297z"     fill="currentColor"
     stroke="currentColor"
     stroke-width="1.2"
     stroke-linejoin="round"
     stroke-linecap="round"/>
  <path d="m15 19a1 1 0 0 0-0.70703 0.29297 1 1 0 0 0 0 1.4141l5 5a1 1 0 0 0 1.4141 0 1 1 0 0 0 0-1.4141l-5-5a1 1 0 0 0-0.70703-0.29297z"     fill="currentColor"
     stroke="currentColor"
     stroke-width="1.2"
     stroke-linejoin="round"
     stroke-linecap="round"/>
  <path d="m30.191 14.539a0.50005 0.50005 0 0 0-0.54492 0.10742l-5 5a0.5 0.5 0 0 0 0 0.70703 0.5 0.5 0 0 0 0.70703 0l4.1465-4.1465v8.793a0.5 0.5 0 0 0 0.5 0.5 0.5 0.5 0 0 0 0.5-0.5v-10a0.50005 0.50005 0 0 0-0.30859-0.46094z"     fill="currentColor"
     stroke="currentColor"
     stroke-width="1.2"
     stroke-linejoin="round"
     stroke-linecap="round"/>
  <path d="m40.191 24.539a0.50005 0.50005 0 0 0-0.54492 0.10742l-5 5a0.5 0.5 0 0 0 0 0.70703 0.5 0.5 0 0 0 0.70703 0l4.1465-4.1465v8.793a0.5 0.5 0 0 0 0.5 0.5 0.5 0.5 0 0 0 0.5-0.5v-10a0.50005 0.50005 0 0 0-0.30859-0.46094z"     fill="currentColor"
     stroke="currentColor"
     stroke-width="1.2"
     stroke-linejoin="round"
     stroke-linecap="round"/>
  <path d="m10 29a1 1 0 0 0-1 1 1 1 0 0 0 1 1h15a1 1 0 0 0 1-1 1 1 0 0 0-1-1z"     fill="currentColor"
     stroke="currentColor"
     stroke-width="1.2"
     stroke-linejoin="round"
     stroke-linecap="round"/>
  <path d="m35 39a1 1 0 0 0-1 1v15a1 1 0 0 0 1 1 1 1 0 0 0 1-1v-15a1 1 0 0 0-1-1z"     fill="currentColor"
     stroke="currentColor"
     stroke-width="1.2"
     stroke-linejoin="round"
     stroke-linecap="round"/>
  <path d="m10.09 29.004a1 1 0 0 0-1.0859 0.90625c-0.84818 9.3299 0.83955 16.347 5.2891 20.797 4.4495 4.4495 11.467 6.1372 20.797 5.2891a1 1 0 0 0 0.90625-1.0859 1 1 0 0 0-1.0859-0.90625c-9.0034 0.81849-15.319-0.82711-19.203-4.7109s-5.5294-10.2-4.7109-19.203a1 1 0 0 0-0.90625-1.0859z"     fill="currentColor"
     stroke="currentColor"
     stroke-width="1.2"
     stroke-linejoin="round"
     stroke-linecap="round"/>
</svg>
